<?xml version="1.0" standalone="no"?>
<!DOCTYPE svg PUBLIC "-//W3C//DTD SVG 20010904//EN"
 "http://www.w3.org/TR/2001/REC-SVG-20010904/DTD/svg10.dtd">
<svg version="1.0" xmlns="http://www.w3.org/2000/svg"
 width="512.000000pt" height="512.000000pt" viewBox="0 0 512.000000 512.000000"
 preserveAspectRatio="xMidYMid meet">

<g transform="translate(0.000000,512.000000) scale(0.100000,-0.100000)"
fill="#000000" stroke="none">
<path d="M880 4947 c-49 -16 -133 -102 -148 -153 -9 -31 -12 -242 -12 -837 l0
-796 -98 -75 c-117 -88 -145 -119 -186 -206 l-31 -65 -3 -1328 -2 -1327 80 0
80 0 0 1296 c0 978 3 1307 12 1338 8 28 32 61 77 106 l66 65 5 -567 c5 -555 5
-567 26 -595 53 -71 144 -94 211 -53 18 10 158 158 312 328 155 170 292 314
306 320 78 36 175 -27 175 -113 0 -41 -18 -67 -154 -230 -65 -77 -124 -153
-133 -170 -9 -17 -19 -73 -24 -135 -12 -156 -41 -226 -144 -342 -37 -41 -82
-108 -105 -153 -66 -131 -70 -162 -70 -657 l0 -438 80 0 80 0 0 80 0 80 1458
0 c1648 0 1517 -7 1595 80 46 51 67 103 67 166 l0 39 250 -250 250 -250 57 58
58 57 -500 501 c-275 275 -520 512 -545 527 -42 25 -54 27 -215 33 -150 5
-177 8 -225 30 -52 22 -429 296 -460 333 -24 30 -19 92 11 122 48 48 75 40
295 -86 l199 -115 81 0 c71 0 85 3 122 27 22 15 54 49 69 75 23 40 28 60 28
114 0 68 1 65 -76 186 -13 22 -9 27 81 118 52 52 97 95 101 95 3 0 84 -123
179 -272 l172 -273 281 -282 c155 -156 285 -283 290 -283 13 0 107 92 107 104
0 6 -122 133 -271 281 -149 149 -286 293 -305 322 l-34 52 0 387 0 388 148
150 c157 160 182 198 182 286 0 144 -132 262 -276 247 l-54 -6 0 736 c0 539
-3 746 -12 775 -6 22 -31 62 -55 88 -78 87 76 80 -1777 79 -1166 -1 -1651 -4
-1676 -12z m3335 -172 l25 -24 0 -798 0 -798 -80 -80 -80 -80 0 823 0 822
-1520 0 -1520 0 0 -1288 0 -1289 -71 -79 c-40 -43 -76 -83 -80 -88 -5 -6 -9
614 -9 1422 l0 1433 25 24 24 25 1631 0 1631 0 24 -25z m-295 -1117 l0 -823
-106 -106 c-106 -106 -106 -106 -143 -98 -20 5 -153 9 -297 9 -405 0 -381 18
-554 -415 l-122 -305 -109 0 -109 0 0 -80 0 -80 110 0 c61 0 110 -4 110 -9 0
-4 12 -25 26 -46 l26 -38 -176 -176 -176 -176 0 -178 0 -177 178 0 177 0 204
204 204 204 111 -83 c186 -139 233 -156 446 -162 212 -7 200 4 200 -178 l0
-145 -1320 0 -1320 0 0 113 c0 181 33 273 140 394 34 37 75 92 91 121 17 28
32 52 33 52 2 0 18 -8 37 -17 50 -26 427 -32 499 -8 59 20 130 93 148 153 16
54 16 411 0 466 -16 55 -99 138 -154 154 -23 7 -68 12 -101 12 l-60 0 -5 65
c-4 47 -14 79 -37 120 l-31 55 96 0 c128 0 168 13 229 75 62 61 75 101 75 229
l0 96 -80 0 -80 0 0 -95 c0 -88 -2 -98 -25 -120 -24 -25 -26 -25 -215 -25
-257 0 -240 -17 -240 240 0 189 0 191 25 215 22 23 32 25 120 25 l95 0 0 80 0
80 -96 0 c-128 0 -168 -13 -229 -75 -69 -69 -75 -94 -75 -327 0 -207 5 -239
48 -297 14 -19 21 -36 16 -38 -31 -10 -86 -62 -189 -176 l-115 -127 0 1120 0
1120 1360 0 1360 0 0 -822z m621 -557 c51 -52 42 -80 -56 -180 l-84 -86 -63
63 -63 63 86 84 c100 98 128 107 180 56z m-316 -321 l60 -60 -435 -435 c-239
-240 -439 -434 -445 -433 -5 2 -42 21 -82 43 l-72 40 452 453 c248 248 454
452 457 452 3 0 32 -27 65 -60z m-1010 -650 l-350 -350 -14 29 c-13 27 -7 44
109 335 82 206 129 311 143 321 17 12 63 15 242 15 l220 0 -350 -350z m1023
49 l-3 -91 -68 107 -68 108 68 69 68 69 3 -85 c1 -47 1 -126 0 -177z m-2183
-124 c25 -24 25 -26 25 -215 0 -257 17 -240 -240 -240 -189 0 -191 0 -215 25
-22 22 -25 32 -25 104 l0 80 112 135 112 136 104 0 c96 0 105 -2 127 -25z
m1661 -263 c4 -13 -1 -33 -10 -47 -21 -32 -65 -33 -113 -4 l-35 22 54 54 53
54 23 -28 c12 -15 25 -38 28 -51z m-783 -232 c10 -16 36 -44 58 -62 l40 -32
-173 -173 -173 -173 -62 0 -63 0 0 62 0 63 172 172 c95 95 175 173 178 173 3
0 14 -13 23 -30z m1307 -913 c0 -112 -1 -119 -25 -142 l-24 -25 -1456 0 -1455
0 0 80 0 80 1400 0 1400 0 0 142 0 143 80 -80 80 -80 0 -118z"/>
<path d="M1600 4307 c-49 -16 -133 -102 -148 -153 -16 -56 -16 -412 0 -468 16
-55 99 -138 154 -154 26 -8 112 -12 236 -12 234 0 266 8 331 80 54 60 67 103
67 224 l0 96 -80 0 -80 0 0 -95 c0 -88 -2 -98 -25 -120 -24 -25 -26 -25 -215
-25 -257 0 -240 -17 -240 240 0 189 0 191 25 215 22 23 32 25 120 25 l95 0 0
80 0 80 -102 -1 c-57 -1 -119 -6 -138 -12z"/>
<path d="M2480 4240 l0 -80 600 0 600 0 0 80 0 80 -600 0 -600 0 0 -80z"/>
<path d="M1900 4095 l-195 -195 58 -57 57 -58 195 195 c107 107 195 200 195
205 0 13 -92 105 -105 105 -6 0 -98 -88 -205 -195z"/>
<path d="M2480 3920 l0 -80 480 0 480 0 0 80 0 80 -480 0 -480 0 0 -80z"/>
<path d="M2480 3200 l0 -80 600 0 600 0 0 80 0 80 -600 0 -600 0 0 -80z"/>
<path d="M1900 3055 l-195 -195 58 -57 57 -58 195 195 c107 107 195 200 195
205 0 13 -92 105 -105 105 -6 0 -98 -88 -205 -195z"/>
<path d="M2480 2880 l0 -80 400 0 400 0 0 80 0 80 -400 0 -400 0 0 -80z"/>
</g>
</svg>
