<?xml version="1.0" standalone="no"?>
<!DOCTYPE svg PUBLIC "-//W3C//DTD SVG 20010904//EN"
 "http://www.w3.org/TR/2001/REC-SVG-20010904/DTD/svg10.dtd">
<svg version="1.0" xmlns="http://www.w3.org/2000/svg"
 width="512.000000pt" height="512.000000pt" viewBox="0 0 512.000000 512.000000"
 preserveAspectRatio="xMidYMid meet">

<g transform="translate(0.000000,512.000000) scale(0.100000,-0.100000)"
fill="#000000" stroke="none">
<path d="M2325 5050 c-81 -10 -133 -46 -169 -117 -13 -25 -28 -36 -70 -49 -51
-16 -55 -16 -71 -1 -25 26 -72 22 -91 -7 -8 -14 -14 -34 -12 -45 2 -14 -14
-33 -57 -68 -169 -137 -274 -357 -305 -643 -9 -82 -17 -113 -41 -155 -16 -28
-29 -65 -29 -82 0 -38 39 -79 91 -95 22 -6 39 -13 39 -16 0 -2 -9 -15 -20 -29
-27 -34 -26 -88 4 -166 13 -34 27 -87 30 -117 12 -98 28 -142 66 -180 24 -24
45 -61 64 -115 16 -44 56 -147 88 -228 l60 -148 -27 -104 c-15 -57 -36 -113
-46 -124 -24 -25 -52 -32 -265 -65 -94 -15 -224 -40 -288 -56 -65 -17 -122
-30 -126 -30 -4 0 -15 44 -25 98 -9 53 -22 115 -28 136 -16 56 -72 110 -152
147 -60 28 -82 33 -173 37 -157 7 -262 -22 -343 -95 -47 -42 -78 -102 -79
-148 0 -16 43 -252 95 -523 52 -272 95 -500 95 -508 0 -8 -8 -22 -18 -32 -55
-55 -75 -381 -34 -535 34 -124 78 -203 160 -285 l72 -73 26 -132 c14 -73 31
-138 38 -145 26 -27 480 -131 748 -171 651 -99 1253 -90 1889 29 217 41 508
116 539 139 22 16 29 37 52 156 22 116 30 139 50 153 83 56 167 186 204 317
42 152 23 487 -32 542 l-23 23 94 492 c52 271 95 515 95 543 -1 166 -163 265
-417 253 -115 -6 -188 -30 -252 -84 -55 -48 -69 -77 -92 -197 -10 -56 -21
-112 -24 -123 l-5 -22 -59 18 c-84 27 -273 65 -441 90 -80 12 -153 26 -162 31
-26 14 -39 43 -68 153 l-27 99 38 86 c20 47 60 149 89 226 39 106 61 149 90
181 37 40 60 105 60 169 0 14 14 65 30 115 35 106 36 124 10 168 -11 18 -20
34 -20 36 0 1 18 8 39 15 22 6 52 26 66 43 33 39 30 73 -14 145 -23 37 -31 62
-31 95 0 59 -26 205 -51 290 -47 160 -162 335 -268 408 -45 31 -50 39 -51 72
0 26 -6 40 -19 48 -28 15 -62 12 -82 -6 -15 -14 -22 -14 -70 1 -48 14 -57 21
-84 67 -47 81 -134 114 -260 98z m145 -140 c32 -32 34 -65 12 -244 -22 -177
-36 -309 -48 -456 -3 -47 -11 -91 -16 -97 -14 -18 -63 -16 -78 2 -7 8 -18 86
-26 182 -17 211 -31 332 -51 451 -24 145 1 182 119 182 54 0 72 -4 88 -20z
m-321 -207 c19 -119 29 -214 41 -373 16 -209 25 -254 61 -295 81 -92 242 -64
283 47 8 24 22 130 31 238 16 188 40 396 51 433 6 21 15 21 58 3 l32 -13 -12
-104 c-28 -234 -44 -470 -34 -489 15 -28 55 -36 84 -16 20 13 25 26 30 78 3
35 13 142 22 238 8 96 18 185 21 197 l5 23 28 -20 c15 -10 45 -43 68 -72 93
-121 152 -292 170 -486 6 -70 16 -113 31 -142 12 -24 19 -46 14 -50 -10 -10
-174 -37 -303 -50 -338 -36 -933 -15 -1172 41 l-48 11 24 41 c18 32 26 70 35
154 23 224 89 394 199 514 33 35 62 62 65 59 7 -7 34 -255 43 -393 9 -145 39
-185 103 -140 23 16 24 18 17 132 -6 111 -29 352 -42 437 -6 39 -5 41 28 51
54 18 56 17 67 -54z m-8 -984 c240 -11 534 -4 779 17 65 5 65 5 85 -28 11 -17
30 -35 42 -38 l21 -5 -23 -57 c-13 -32 -28 -95 -34 -140 -9 -77 -12 -85 -45
-113 -30 -26 -44 -55 -96 -200 -70 -194 -138 -342 -167 -368 -99 -88 -480 -96
-625 -14 -33 18 -47 37 -83 112 -23 49 -68 160 -99 245 -71 195 -82 220 -100
220 -26 0 -38 29 -52 122 -7 51 -23 115 -35 141 -11 27 -19 50 -17 50 51 25
63 36 66 58 3 25 4 25 65 18 34 -4 177 -13 318 -20z m-1280 -1025 c59 -18 119
-57 119 -79 0 -8 -10 -20 -22 -26 -26 -14 -172 -18 -240 -6 -40 7 -50 5 -67
-12 -76 -76 53 -137 237 -114 48 6 94 14 103 18 13 5 18 -5 28 -51 6 -32 9
-59 7 -61 -6 -7 -294 45 -374 67 -123 34 -168 63 -178 115 -12 67 35 121 130
151 58 18 192 17 257 -2z m3299 0 c33 -10 67 -29 87 -49 28 -28 33 -40 33 -78
0 -40 -4 -49 -36 -75 -56 -47 -182 -80 -473 -127 l-44 -7 8 47 c10 72 12 74
47 65 58 -17 192 -23 249 -11 68 14 105 47 95 85 -10 41 -37 49 -121 35 -79
-14 -206 -2 -228 20 -18 18 43 71 104 92 69 24 205 25 279 3z m-2003 -76 c64
-18 104 -22 218 -22 151 0 237 15 332 59 l53 24 10 -42 c29 -113 66 -174 121
-203 18 -9 114 -29 213 -44 100 -16 219 -37 266 -48 102 -22 98 -24 -140 -46
-565 -55 -1091 -56 -1646 -5 -305 28 -310 30 -139 62 77 15 190 34 250 43 148
21 206 48 245 117 16 28 34 74 41 101 6 28 14 54 16 58 2 5 22 -1 43 -12 21
-11 74 -30 117 -42z m-1507 -313 c168 -35 449 -80 645 -105 926 -116 1930 -77
2839 110 55 11 101 19 102 17 6 -5 -148 -801 -156 -810 -4 -5 -52 -16 -106
-24 -107 -16 -190 -12 -289 13 -119 31 -214 -16 -267 -133 -110 -244 -98 -624
23 -715 93 -70 188 -93 349 -86 82 4 110 3 110 -7 0 -6 -5 -37 -11 -68 -11
-55 -13 -57 -53 -68 -22 -6 -63 -17 -91 -25 -102 -28 -375 -84 -535 -108 -292
-45 -492 -60 -805 -60 -395 0 -674 26 -1060 99 -186 36 -451 98 -462 109 -3 3
-12 35 -18 70 l-12 64 116 -5 c175 -8 288 23 365 103 43 45 62 102 75 231 17
165 -13 343 -79 477 -54 108 -132 149 -240 126 -110 -24 -176 -31 -240 -25
-91 9 -180 26 -180 36 0 4 -34 183 -75 397 -71 368 -79 412 -72 412 1 0 58
-11 127 -25z m125 -931 c110 -17 210 -13 309 12 81 21 111 8 142 -61 61 -132
83 -334 54 -483 -15 -76 -52 -113 -137 -138 -70 -20 -234 -15 -306 11 -105 38
-191 151 -233 305 -19 71 -25 275 -11 344 8 38 9 38 45 32 20 -4 82 -13 137
-22z m2907 9 c84 -22 255 -22 376 1 51 10 95 16 98 14 2 -3 8 -43 12 -89 12
-117 -1 -238 -39 -354 -28 -89 -37 -104 -88 -155 -83 -84 -142 -104 -296 -105
-105 0 -127 3 -172 23 -28 13 -59 32 -68 42 -26 29 -47 172 -41 280 9 159 63
321 116 347 31 16 27 16 102 -4z"/>
</g>
</svg>
