<?xml version="1.0" standalone="no"?>
<!DOCTYPE svg PUBLIC "-//W3C//DTD SVG 20010904//EN"
 "http://www.w3.org/TR/2001/REC-SVG-20010904/DTD/svg10.dtd">
<svg version="1.0" xmlns="http://www.w3.org/2000/svg"
 width="512.000000pt" height="512.000000pt" viewBox="0 0 512.000000 512.000000"
 preserveAspectRatio="xMidYMid meet">

<g transform="translate(0.000000,512.000000) scale(0.100000,-0.100000)"
fill="#000000" stroke="none">
<path d="M1220 4491 c-221 -49 -446 -173 -589 -326 -110 -118 -151 -198 -123
-242 10 -16 1051 -724 1082 -736 21 -8 38 -4 90 23 94 47 185 80 268 96 41 8
76 14 79 14 2 0 -33 -40 -78 -90 -149 -162 -173 -215 -135 -288 39 -75 113
-114 226 -120 74 -3 94 0 155 22 80 31 143 66 200 111 28 23 54 34 87 37 l48
6 42 -80 c80 -150 189 -258 313 -314 80 -35 204 -116 295 -194 107 -90 259
-240 276 -272 31 -59 8 -119 -51 -134 -21 -5 -33 0 -58 23 -321 303 -391 363
-424 363 -57 0 -91 -58 -64 -108 5 -9 100 -100 210 -202 137 -126 201 -192
201 -206 0 -12 -10 -36 -23 -55 -19 -28 -30 -35 -64 -37 -40 -3 -43 -1 -257
192 -223 202 -238 212 -287 185 -27 -14 -41 -53 -29 -83 5 -14 99 -107 209
-207 111 -100 201 -185 201 -190 0 -4 -11 -21 -25 -38 -27 -31 -81 -55 -114
-49 -10 2 -101 81 -201 176 -165 156 -185 172 -217 172 -23 0 -46 9 -67 27
-42 36 -104 63 -145 63 -22 0 -49 12 -81 35 -56 41 -109 65 -144 65 -16 0 -45
17 -76 45 -72 64 -124 88 -191 90 -45 0 -64 6 -93 28 -96 73 -207 77 -278 10
l-27 -26 -73 41 c-40 22 -199 111 -353 197 -299 166 -304 168 -352 123 -43
-41 -25 -95 100 -302 269 -446 696 -894 1271 -1333 206 -158 472 -333 504
-333 18 0 82 37 187 108 638 428 1202 966 1514 1443 112 170 117 181 102 217
-26 62 -34 61 -400 -33 -183 -47 -339 -85 -345 -85 -7 0 -53 37 -102 82 -182
169 -302 257 -454 333 -132 66 -194 132 -267 282 -30 62 -63 118 -74 124 -23
12 -234 2 -264 -14 -11 -5 -33 -25 -48 -43 -15 -18 -64 -51 -109 -74 -90 -45
-164 -53 -219 -25 l-30 16 29 37 c53 67 216 224 287 277 94 71 151 98 202 97
82 -1 280 -79 564 -223 l176 -89 54 19 c30 10 266 103 524 206 259 102 527
209 598 237 84 33 131 57 138 71 17 30 5 103 -34 205 -156 416 -594 691 -1066
669 -187 -8 -378 -77 -570 -204 -97 -65 -274 -232 -341 -322 -25 -33 -48 -60
-51 -61 -3 0 -32 33 -63 74 -175 229 -451 414 -724 488 -112 30 -337 34 -452
9z m420 -156 c120 -32 250 -95 363 -175 110 -79 276 -250 351 -363 85 -127
121 -129 201 -8 167 253 430 458 692 538 78 24 105 27 238 27 174 1 246 -15
404 -89 214 -102 366 -257 451 -462 17 -41 28 -79 23 -83 -4 -5 -264 -110
-576 -233 l-568 -225 -172 87 c-209 105 -405 184 -511 206 -70 14 -84 14 -137
1 -60 -16 -110 -39 -164 -75 -26 -18 -40 -19 -120 -14 -137 9 -280 -21 -428
-89 -48 -22 -72 -29 -85 -22 -32 16 -922 625 -922 631 0 16 82 102 147 154
239 190 550 264 813 194z m-585 -2059 c202 -114 220 -125 215 -147 -11 -53 -3
-135 17 -174 24 -46 80 -106 122 -131 16 -10 31 -29 34 -43 14 -70 108 -153
211 -187 35 -12 63 -30 88 -59 43 -49 117 -84 193 -92 43 -5 56 -10 66 -30 30
-56 137 -91 217 -71 35 9 60 24 98 64 l51 52 65 -42 c154 -99 301 -102 409 -9
23 21 50 33 84 38 98 14 182 71 219 148 15 33 21 37 57 37 86 0 164 63 200
161 19 51 25 59 63 73 62 24 122 79 141 131 16 41 18 123 4 175 -3 11 40 26
201 67 112 28 206 50 208 48 7 -7 -105 -158 -214 -290 -183 -220 -432 -464
-708 -694 -200 -166 -608 -461 -639 -461 -16 0 -228 145 -387 264 -247 187
-427 341 -634 545 -242 238 -400 423 -535 625 -83 125 -84 126 -74 126 4 0
107 -56 228 -124z m504 -90 c10 -12 5 -24 -25 -63 -20 -26 -47 -69 -59 -95
-21 -45 -23 -47 -38 -30 -38 42 -25 116 30 175 29 30 73 36 92 13z m229 -76
c4 0 16 -7 26 -15 18 -14 18 -15 -8 -49 -40 -53 -95 -173 -108 -238 -13 -62
-23 -69 -64 -42 -31 21 -54 64 -54 101 0 88 135 265 188 247 8 -2 17 -4 20 -4z
m249 -140 l43 -19 -30 -45 c-40 -58 -77 -158 -90 -243 -6 -37 -13 -69 -14 -71
-2 -1 -22 5 -45 14 -72 29 -87 87 -50 197 29 87 69 156 98 172 34 18 38 18 88
-5z m242 -100 c10 -5 25 -20 34 -34 15 -23 15 -30 -9 -113 -33 -112 -79 -209
-109 -229 -35 -23 -76 -1 -88 46 -18 71 29 242 85 306 31 35 55 42 87 24z
m434 -367 c-28 -22 -99 -15 -156 13 -61 31 -127 81 -127 96 0 6 9 42 21 80
l20 69 129 -123 c113 -108 127 -125 113 -135z"/>
</g>
</svg>
