<?xml version="1.0" standalone="no"?>
<!DOCTYPE svg PUBLIC "-//W3C//DTD SVG 20010904//EN"
 "http://www.w3.org/TR/2001/REC-SVG-20010904/DTD/svg10.dtd">
<svg version="1.0" xmlns="http://www.w3.org/2000/svg"
 width="512.000000pt" height="512.000000pt" viewBox="0 0 512.000000 512.000000"
 preserveAspectRatio="xMidYMid meet">

<g transform="translate(0.000000,512.000000) scale(0.100000,-0.100000)"
fill="#000000" stroke="none">
<path d="M1185 4923 c-32 -8 -83 -51 -103 -86 -16 -30 -17 -159 -20 -2242 -1
-1466 1 -2228 8 -2264 12 -66 55 -116 111 -131 24 -7 604 -9 1646 -8 l1608 3
37 23 c21 13 45 40 57 66 21 42 21 54 21 779 l0 737 31 0 c17 0 46 7 63 15 42
20 282 262 295 298 26 67 10 121 -60 210 -53 67 -44 81 58 96 85 13 125 32
157 74 20 27 21 41 21 242 0 200 -1 215 -21 242 -29 40 -93 69 -169 78 -91 9
-100 29 -47 93 22 26 47 61 56 79 20 39 21 105 2 141 -17 32 -262 275 -293
291 -12 6 -38 11 -57 11 l-36 0 0 562 c0 548 -1 563 -21 604 -12 26 -36 53
-57 66 l-37 23 -1615 1 c-888 1 -1624 0 -1635 -3z m3241 -127 c12 -17 14 -115
14 -602 l0 -582 -31 -26 c-47 -40 -64 -24 -78 71 -13 85 -32 125 -74 157 -26
19 -44 21 -215 24 -103 2 -201 1 -219 -3 -72 -13 -115 -80 -128 -198 -9 -81
-28 -89 -91 -38 -27 21 -63 46 -81 55 -39 20 -105 21 -141 2 -32 -17 -275
-262 -291 -293 -16 -32 -13 -99 5 -135 9 -17 34 -54 55 -81 51 -64 43 -83 -38
-92 -110 -12 -168 -45 -192 -108 -7 -16 -11 -107 -11 -215 0 -158 3 -192 18
-222 21 -43 70 -76 122 -84 22 -3 58 -9 80 -12 62 -9 67 -32 21 -90 -81 -103
-93 -171 -42 -240 45 -61 254 -262 285 -273 67 -26 121 -10 213 66 58 46 79
36 88 -44 13 -118 56 -185 128 -198 18 -4 116 -5 219 -3 171 3 189 5 215 24
42 32 61 72 74 157 14 95 31 111 78 71 l31 -26 0 -757 c0 -638 -2 -760 -14
-777 -14 -19 -44 -19 -1607 -22 -1416 -2 -1595 0 -1616 13 l-23 15 0 2228 c0
1225 4 2232 8 2238 4 6 14 14 22 17 8 3 732 5 1608 4 1565 -2 1594 -2 1608
-21z m-222 -1088 c8 -13 17 -57 21 -98 4 -41 11 -84 15 -95 7 -19 122 -75 153
-75 6 0 48 27 91 60 44 33 86 60 95 60 21 0 261 -240 261 -261 0 -9 -27 -52
-60 -95 -33 -43 -60 -86 -60 -95 0 -9 13 -46 29 -82 32 -71 32 -71 146 -82
118 -12 115 -6 115 -209 0 -140 -3 -176 -15 -186 -10 -9 -156 -36 -213 -40 -6
0 -62 -133 -62 -147 0 -9 27 -52 60 -95 33 -44 60 -87 60 -96 0 -22 -240 -262
-261 -262 -9 0 -52 27 -95 60 -43 33 -86 60 -95 60 -16 0 -149 -55 -149 -62
-4 -57 -31 -203 -40 -213 -10 -12 -46 -15 -186 -15 -203 0 -197 -3 -209 115
-11 114 -11 114 -82 146 -36 16 -73 29 -82 29 -9 0 -52 -27 -95 -60 -43 -33
-86 -60 -95 -60 -21 0 -261 240 -261 261 0 10 27 53 60 97 33 43 60 84 60 90
0 19 -51 142 -62 148 -5 4 -52 12 -105 19 -52 8 -101 19 -109 26 -11 9 -14 47
-14 185 0 203 -3 197 115 208 106 10 118 17 148 92 15 35 27 70 27 78 0 7 -25
44 -55 82 -85 106 -87 96 56 240 68 68 131 124 140 124 10 0 53 -27 97 -60 43
-33 84 -60 90 -60 7 0 41 12 76 26 74 29 82 42 92 149 11 118 5 115 209 115
170 0 175 -1 189 -22z"/>
<path d="M2407 4532 c-23 -25 -22 -69 2 -82 13 -6 159 -10 405 -10 l386 0 15
24 c18 27 7 69 -20 80 -9 3 -187 6 -394 6 -353 0 -379 -1 -394 -18z"/>
<path d="M2075 4196 c-14 -14 -25 -30 -25 -36 0 -6 11 -22 25 -36 l24 -24 717
2 c695 3 716 4 730 22 8 11 14 27 14 36 0 9 -6 25 -14 36 -14 18 -35 19 -730
22 l-717 2 -24 -24z"/>
<path d="M1462 3428 c-20 -20 -14 -65 10 -82 20 -14 95 -16 620 -16 585 0 598
0 618 20 22 22 25 42 10 71 -10 18 -28 19 -628 19 -467 0 -621 -3 -630 -12z"/>
<path d="M1462 3088 c-17 -17 -15 -64 4 -82 14 -14 83 -16 617 -16 529 0 605
2 625 16 27 18 29 55 4 77 -17 15 -75 17 -628 17 -461 0 -613 -3 -622 -12z"/>
<path d="M1468 2749 c-25 -14 -24 -75 1 -89 13 -6 226 -10 624 -10 572 0 605
1 620 18 22 24 21 55 -1 75 -17 15 -74 17 -623 17 -392 -1 -610 -4 -621 -11z"/>
<path d="M2071 2339 c-288 -56 -521 -268 -611 -554 -31 -98 -38 -264 -16 -371
51 -253 222 -468 452 -570 127 -56 324 -83 358 -48 14 13 16 61 16 365 l0 349
349 0 c304 0 352 2 365 16 34 33 9 228 -45 349 -103 233 -317 407 -568 461
-72 15 -230 17 -300 3z m284 -114 c39 -8 112 -35 163 -60 191 -95 332 -288
367 -502 l7 -43 -348 0 c-309 0 -349 -2 -366 -17 -17 -15 -18 -40 -18 -365 l0
-350 -42 7 c-333 54 -579 341 -578 674 1 198 103 405 260 526 160 123 362 170
555 130z"/>
<path d="M2379 1393 c-18 -21 -26 -717 -9 -775 13 -46 35 -53 123 -44 385 43
676 337 712 720 12 125 44 116 -420 116 -353 0 -394 -2 -406 -17z m711 -122
c0 -44 -38 -158 -78 -236 -52 -100 -172 -218 -277 -272 -80 -41 -180 -73 -229
-73 l-26 0 0 305 0 305 305 0 305 0 0 -29z"/>
<path d="M3356 878 c-21 -29 -20 -51 2 -71 16 -15 53 -17 306 -17 179 0 295 4
307 10 23 13 26 62 3 84 -13 14 -55 16 -309 16 -292 0 -294 0 -309 -22z"/>
<path d="M3167 662 c-22 -25 -21 -48 3 -72 19 -19 33 -20 499 -20 423 0 481 2
495 16 19 18 21 65 4 82 -9 9 -133 12 -498 12 -459 0 -488 -1 -503 -18z"/>
<path d="M3912 3359 c-220 -37 -418 -202 -492 -411 -78 -223 -27 -467 135
-647 58 -64 175 -137 268 -167 117 -38 267 -38 383 0 195 63 352 222 414 421
34 106 32 262 -4 372 -97 298 -398 483 -704 432z m258 -129 c155 -45 292 -181
340 -339 29 -92 29 -226 0 -312 -55 -163 -169 -279 -329 -335 -82 -29 -227
-33 -312 -8 -113 33 -220 113 -288 215 -111 166 -112 397 -3 565 129 198 358
281 592 214z"/>
<path d="M343 4692 c-101 -36 -167 -96 -212 -192 -24 -52 -26 -66 -29 -236
l-4 -181 -33 -16 c-60 -29 -65 -50 -62 -282 l2 -207 33 -29 c18 -16 39 -29 47
-29 13 0 15 -148 15 -1222 l0 -1223 161 -315 c89 -173 169 -323 177 -332 22
-26 68 -23 86 5 7 12 86 164 175 337 l161 315 0 1216 0 1217 30 12 c56 23 59
38 59 269 0 210 0 210 -25 240 -14 17 -34 33 -44 36 -19 6 -20 16 -20 150 0
79 -5 168 -11 197 -25 115 -96 205 -204 255 -79 37 -221 44 -302 15z m252
-116 c62 -29 102 -68 128 -126 17 -37 21 -72 25 -207 l5 -163 -273 0 -272 0 4
173 c3 162 4 175 28 216 29 52 82 97 136 116 63 23 161 19 219 -9z m245 -660
c0 -40 -4 -55 -16 -60 -9 -3 -166 -6 -349 -6 -183 0 -340 3 -349 6 -12 5 -16
20 -16 60 l0 54 365 0 365 0 0 -54z m0 -231 l0 -55 -365 0 -365 0 0 55 0 55
365 0 365 0 0 -55z m-550 -1334 l0 -1169 -31 -26 c-17 -14 -35 -26 -40 -26 -5
0 -9 471 -9 1195 l0 1195 40 0 40 0 0 -1169z m260 6 c0 -891 -3 -1166 -12
-1175 -15 -15 -92 -16 -119 -2 -19 10 -19 34 -19 1169 0 637 3 1161 7 1164 3
4 37 7 75 7 l68 0 0 -1163z m198 -22 c1 -649 0 -1186 -3 -1193 -6 -17 -60 10
-75 37 -7 13 -10 404 -10 1181 l0 1161 43 -3 42 -3 3 -1180z m-303 -1279 c25
-4 63 -1 99 9 59 15 59 15 96 -10 20 -14 41 -25 48 -25 18 0 16 -6 -36 -108
l-48 -94 -126 -1 -126 -2 -50 101 -50 101 32 11 c18 7 41 21 51 32 15 17 20
18 44 6 14 -8 44 -17 66 -20z m95 -341 c0 -10 -61 -127 -64 -124 -2 2 -18 32
-35 67 l-31 62 65 0 c36 0 65 -2 65 -5z"/>
</g>
</svg>
