<?xml version="1.0" standalone="no"?>
<!DOCTYPE svg PUBLIC "-//W3C//DTD SVG 20010904//EN"
 "http://www.w3.org/TR/2001/REC-SVG-20010904/DTD/svg10.dtd">
<svg version="1.0" xmlns="http://www.w3.org/2000/svg"
 width="512.000000pt" height="512.000000pt" viewBox="0 0 512.000000 512.000000"
 preserveAspectRatio="xMidYMid meet">

<g transform="translate(0.000000,512.000000) scale(0.100000,-0.100000)"
fill="#000000" stroke="none">
<path d="M827 4509 c-91 -21 -169 -86 -209 -174 l-23 -50 -5 -933 -5 -934 -54
-18 c-121 -43 -220 -134 -278 -256 -32 -67 -37 -87 -41 -174 -5 -116 17 -207
71 -287 l33 -50 -60 -31 c-103 -53 -188 -150 -229 -260 -19 -51 -22 -82 -25
-311 -3 -217 -1 -260 13 -297 20 -53 81 -110 134 -124 28 -7 210 -10 563 -8
l523 3 43 23 c27 14 54 41 73 70 l30 47 -3 280 -3 280 -38 79 c-44 93 -127
180 -211 221 -31 15 -56 29 -56 31 0 2 13 22 29 46 39 58 69 151 77 237 l7 71
446 -2 446 -3 6 -55 c8 -73 33 -146 70 -205 16 -26 29 -48 27 -50 -2 -1 -21
-12 -44 -23 -114 -58 -206 -167 -244 -290 -18 -57 -20 -93 -20 -313 0 -187 3
-258 13 -282 22 -52 87 -103 147 -116 103 -22 170 15 170 94 0 57 -36 95 -91
95 l-39 0 0 224 0 224 33 64 c35 68 95 118 165 138 48 13 536 13 584 0 68 -19
130 -71 166 -139 l32 -63 0 -224 0 -224 -39 0 c-32 0 -44 -6 -65 -31 -51 -61
-22 -144 58 -163 49 -12 134 12 176 50 68 62 70 72 70 352 0 221 -2 257 -20
314 -21 70 -80 167 -126 210 -26 24 -132 92 -156 100 -6 2 4 26 21 52 37 60
62 132 70 206 l6 55 446 3 446 2 7 -71 c8 -86 38 -179 77 -237 16 -24 29 -44
29 -46 0 -2 -26 -17 -57 -32 -86 -43 -166 -127 -210 -220 l-38 -79 -3 -277
c-3 -262 -2 -278 17 -316 25 -49 71 -86 126 -101 54 -15 1035 -15 1088 0 52
14 112 71 132 123 14 37 16 80 13 297 -3 229 -6 260 -25 311 -41 111 -125 206
-228 260 l-62 31 34 51 c67 102 92 260 59 381 -41 155 -158 282 -307 335 l-54
18 -5 934 -5 933 -23 51 c-29 64 -92 126 -157 156 l-50 23 -1715 2 c-980 0
-1731 -3 -1753 -8z m3470 -222 l28 -27 0 -922 0 -921 -40 -12 c-90 -27 -182
-91 -240 -166 l-37 -49 -503 0 -503 0 -26 45 c-80 136 -255 235 -416 235 -160
0 -336 -100 -416 -235 l-26 -45 -500 0 -500 0 -65 70 c-70 75 -127 114 -208
142 l-50 17 0 919 c0 906 0 920 20 942 11 12 29 26 40 31 11 4 784 7 1717 6
l1698 -2 27 -28z m-1650 -2032 c113 -34 194 -147 194 -270 0 -156 -127 -285
-281 -285 -68 0 -134 26 -189 76 -126 113 -125 305 1 419 78 70 172 91 275 60z
m-1844 -50 c54 -22 115 -81 145 -139 21 -41 26 -65 26 -121 -1 -120 -53 -203
-159 -256 -59 -29 -71 -31 -137 -27 -85 6 -136 28 -190 85 -116 120 -102 320
29 420 80 61 194 76 286 38z m3753 -10 c105 -52 161 -151 152 -274 -6 -76 -25
-120 -77 -174 -53 -57 -104 -79 -189 -85 -66 -4 -78 -2 -137 27 -106 53 -158
136 -159 256 0 56 5 80 26 121 76 146 238 200 384 129z m-3535 -761 c55 -26
108 -77 135 -130 17 -35 19 -65 22 -271 l3 -233 -490 0 -491 0 0 214 c0 165 3
223 15 257 30 84 102 153 183 175 34 10 121 13 312 11 247 -2 268 -3 311 -23z
m3741 -2 c26 -13 65 -44 87 -68 64 -73 71 -107 71 -351 l0 -213 -490 0 -490 0
0 219 c0 140 4 230 12 252 18 53 56 105 98 134 73 51 102 55 395 52 260 -2
272 -3 317 -25z"/>
<path d="M1819 4087 c-109 -41 -139 -100 -139 -276 l0 -116 -52 -13 c-196 -46
-370 -220 -423 -422 -23 -87 -23 -228 -1 -305 60 -205 215 -360 421 -421 95
-29 239 -24 340 10 190 65 333 214 385 401 l17 60 136 5 c131 5 137 6 178 35
89 63 106 166 54 339 -65 221 -215 428 -398 549 -169 112 -425 188 -518 154z
m206 -223 c260 -85 466 -307 524 -565 7 -30 15 -62 18 -71 4 -17 -17 -18 -341
-18 l-346 0 0 344 0 343 48 -8 c26 -5 70 -17 97 -25z m-345 -536 c0 -177 10
-218 61 -265 49 -45 88 -53 259 -53 l161 0 -7 -22 c-41 -133 -171 -244 -315
-270 -152 -27 -321 54 -403 194 -40 68 -60 178 -47 253 16 88 63 176 124 231
44 40 135 94 160 94 4 0 7 -73 7 -162z"/>
<path d="M3099 3735 c-55 -30 -61 -110 -13 -156 l26 -24 369 -3 c409 -3 418
-2 444 61 18 43 9 82 -27 112 l-30 25 -371 0 c-302 -1 -377 -3 -398 -15z"/>
<path d="M3099 3335 c-55 -30 -61 -110 -13 -156 l26 -24 369 -3 c409 -3 418
-2 444 61 18 43 9 82 -27 112 l-30 25 -371 0 c-302 -1 -377 -3 -398 -15z"/>
<path d="M3099 2935 c-55 -30 -61 -110 -13 -156 l26 -24 369 -3 c409 -3 418
-2 444 61 18 43 9 82 -27 112 l-30 25 -371 0 c-302 -1 -377 -3 -398 -15z"/>
<path d="M2495 817 c-18 -15 -28 -36 -32 -64 -5 -37 -2 -45 25 -73 40 -39 97
-42 139 -6 23 20 28 32 28 71 0 39 -5 51 -28 71 -37 32 -96 33 -132 1z"/>
</g>
</svg>
