<?xml version="1.0" standalone="no"?>
<!DOCTYPE svg PUBLIC "-//W3C//DTD SVG 20010904//EN"
 "http://www.w3.org/TR/2001/REC-SVG-20010904/DTD/svg10.dtd">
<svg version="1.0" xmlns="http://www.w3.org/2000/svg"
 width="512.000000pt" height="512.000000pt" viewBox="0 0 512.000000 512.000000"
 preserveAspectRatio="xMidYMid meet">

<g transform="translate(0.000000,512.000000) scale(0.100000,-0.100000)"
fill="#000000" stroke="none">
<path d="M1445 4760 c-472 -230 -748 -370 -763 -387 -47 -52 -4 -113 79 -113
l49 0 0 -58 c0 -56 -1 -60 -37 -83 -72 -48 -78 -63 -81 -230 -3 -140 -2 -151
19 -189 33 -59 77 -82 163 -87 60 -4 78 -1 116 19 85 44 108 113 97 299 -6
115 -26 158 -88 190 -39 19 -39 20 -39 79 l0 60 319 0 320 0 20 26 c32 40 24
91 -16 110 -10 5 -132 11 -270 14 l-253 5 278 135 c152 74 386 187 518 252
133 65 245 118 248 118 3 0 6 -115 6 -255 l0 -255 -129 0 c-115 0 -131 -2
-155 -21 -33 -26 -36 -79 -6 -109 18 -18 33 -20 155 -20 l135 0 0 -288 0 -288
-552 -269 c-929 -451 -895 -434 -908 -464 -13 -33 0 -75 29 -90 11 -6 40 -11
65 -11 l46 0 0 -58 c0 -56 -1 -60 -37 -83 -71 -47 -78 -64 -81 -217 -4 -162 4
-197 57 -245 31 -28 51 -37 94 -42 106 -13 181 16 221 85 19 31 21 52 21 181
0 141 -1 147 -27 186 -14 22 -42 48 -62 57 -35 17 -36 18 -36 76 l0 60 585 0
585 0 0 -302 0 -303 -413 -890 -413 -890 -271 -5 c-254 -5 -273 -6 -299 -26
-61 -45 -69 -66 -72 -190 -4 -108 -2 -117 22 -158 17 -30 40 -51 69 -65 l43
-21 1433 0 1432 0 24 25 c30 29 32 64 6 96 l-19 24 -1429 5 -1428 5 -3 78 -3
77 1751 0 1751 0 -3 -78 -3 -77 -205 -5 c-113 -3 -210 -8 -216 -12 -6 -4 -17
-21 -23 -37 -10 -24 -10 -34 3 -60 9 -17 27 -33 39 -36 13 -4 118 -5 233 -3
205 3 211 4 247 28 20 13 46 42 57 63 19 34 21 50 18 151 -3 105 -5 115 -31
149 -15 20 -38 42 -50 49 -16 9 -101 14 -291 18 l-270 5 -413 890 -413 890 0
303 0 302 585 0 585 0 0 -59 c0 -59 -1 -60 -39 -82 -69 -38 -81 -75 -81 -239
0 -165 10 -196 73 -238 36 -24 51 -27 122 -27 71 0 86 3 122 27 64 42 73 73
73 241 0 133 -2 147 -23 178 -12 19 -39 45 -60 58 -36 24 -37 26 -37 83 l0 58
46 0 c56 0 82 13 95 47 20 54 -2 78 -135 142 -203 99 -497 242 -771 375 -143
70 -326 159 -407 198 l-148 71 0 289 0 288 585 0 585 0 0 -58 c0 -57 -1 -59
-37 -83 -21 -13 -48 -40 -61 -59 -22 -33 -23 -41 -20 -190 3 -145 5 -157 27
-189 68 -95 264 -95 332 0 22 32 24 44 27 189 3 149 2 157 -20 190 -13 19 -40
46 -61 59 -36 24 -37 26 -37 83 l0 58 49 0 c62 0 94 24 94 69 0 18 -8 40 -19
51 -10 11 -228 121 -484 246 -256 124 -584 285 -730 358 l-265 131 -385 3
-385 2 -740 -360z m1202 123 l-87 -88 -87 88 -88 87 175 0 175 0 -88 -87z
m871 -214 c285 -138 519 -253 521 -255 2 -2 -233 -4 -522 -4 l-527 0 0 255 c0
140 3 255 6 255 3 0 238 -113 522 -251z m-1070 21 c-2 -3 -40 -41 -85 -84
l-83 -79 0 169 0 169 85 -85 c47 -47 84 -87 83 -90z m390 -74 l-3 -84 -84 80
-83 81 83 84 84 84 3 -80 c1 -44 1 -118 0 -165z m-193 -116 l80 -80 -165 0
-165 0 80 80 c44 44 82 80 85 80 3 0 41 -36 85 -80z m2 -317 l-87 -88 -87 88
-88 87 175 0 175 0 -88 -87z m-252 -132 l60 -61 -88 -88 -87 -87 0 168 0 168
28 -20 c15 -11 54 -47 87 -80z m445 -68 l0 -168 -87 88 -88 88 82 79 c45 44
85 80 88 80 3 0 5 -75 5 -167z m-1902 -88 c4 -129 1 -137 -51 -133 l-42 3 -3
113 -3 113 48 -3 48 -3 3 -90z m3342 -20 l0 -115 -45 0 -45 0 0 115 0 115 45
0 45 0 0 -115z m-1630 -80 l85 -85 -175 0 -175 0 85 85 c47 47 87 85 90 85 3
0 43 -38 90 -85z m-3 -322 l-87 -88 -87 88 -88 87 175 0 175 0 -88 -87z m-517
-218 l0 -255 -527 0 c-289 0 -524 2 -522 4 7 7 1034 506 1042 506 4 0 7 -115
7 -255z m1390 4 c283 -137 517 -252 519 -255 2 -2 -233 -4 -522 -4 l-527 0 0
255 c0 140 4 255 8 255 5 0 240 -113 522 -251z m-1152 108 l82 -82 -85 -85
-85 -85 0 168 c0 92 1 167 3 167 1 0 39 -37 85 -83z m472 -84 l0 -168 -85 85
-85 85 82 82 c46 46 84 83 85 83 2 0 3 -75 3 -167z m-190 -193 l85 -79 -175 0
-175 -1 85 80 c47 43 87 79 90 79 3 0 43 -35 90 -79z m-3 -317 l-87 -88 -87
88 -88 87 175 0 175 0 -88 -87z m-280 -280 l-87 -88 0 175 0 175 87 -88 88
-87 -88 -87z m473 85 l0 -173 -87 87 -88 88 85 85 c46 47 86 85 87 85 2 0 3
-78 3 -172z m-1902 -102 c3 -114 -4 -128 -57 -124 l-36 3 -3 113 -3 113 48 -3
48 -3 3 -99z m3340 -8 l-3 -113 -40 0 -40 0 -3 113 -3 112 46 0 46 0 -3 -112z
m-1628 -83 l85 -85 -175 0 -175 0 85 85 c47 47 87 85 90 85 3 0 43 -38 90 -85z
m230 -254 c5 -11 10 -22 10 -24 0 -8 -317 -197 -330 -197 -10 0 -301 171 -323
191 -5 4 -4 16 2 28 12 21 17 21 321 21 296 0 310 -1 320 -19z m-579 -247 c60
-36 109 -67 109 -69 0 -3 -391 -240 -432 -262 -4 -2 36 87 88 198 51 111 94
204 94 206 0 9 34 -8 141 -73z m748 -120 c50 -109 89 -199 87 -202 -3 -2 -100
53 -216 123 -116 71 -207 131 -203 135 14 12 227 140 234 140 3 0 47 -88 98
-196z m-182 -221 l294 -178 -299 -148 -299 -148 -179 88 c-98 49 -234 116
-301 148 l-123 60 293 177 c160 97 298 177 306 178 8 0 146 -80 308 -177z
m-754 -420 c144 -69 265 -129 269 -133 5 -3 -186 -101 -424 -218 -237 -117
-433 -210 -436 -207 -7 7 310 685 321 685 5 0 126 -57 270 -127z m1330 -210
c86 -185 155 -338 154 -340 -3 -3 -846 404 -856 413 -4 4 519 262 535 263 6 1
81 -151 167 -336z m-440 -223 c237 -116 436 -215 441 -220 7 -7 -293 -10 -872
-10 -485 0 -882 3 -882 6 0 6 859 433 873 434 4 0 202 -95 440 -210z"/>
</g>
</svg>
