<?xml version="1.0" standalone="no"?>
<!DOCTYPE svg PUBLIC "-//W3C//DTD SVG 20010904//EN"
 "http://www.w3.org/TR/2001/REC-SVG-20010904/DTD/svg10.dtd">
<svg version="1.0" xmlns="http://www.w3.org/2000/svg"
 width="512.000000pt" height="512.000000pt" viewBox="0 0 512.000000 512.000000"
 preserveAspectRatio="xMidYMid meet">

<g transform="translate(0.000000,512.000000) scale(0.100000,-0.100000)"
fill="#000000" stroke="none">
<path d="M480 4804 c-174 -37 -332 -160 -410 -316 -75 -153 -71 -31 -68 -1926
l3 -1697 27 -78 c62 -183 186 -329 349 -410 179 -90 -9 -82 2024 -82 1728 0
1802 1 1860 19 203 63 346 203 408 401 9 28 112 448 228 935 201 836 213 890
213 985 1 58 -5 121 -13 150 -54 190 -203 345 -391 407 -55 18 -96 22 -276 26
l-212 4 -5 302 c-5 335 -10 366 -75 491 -50 98 -164 210 -263 259 -128 63
-158 66 -686 66 -311 0 -490 4 -525 11 -86 19 -141 53 -290 182 -189 164 -212
182 -289 222 -124 64 -143 65 -881 64 -527 0 -676 -3 -728 -15z m1431 -168
c97 -21 128 -40 292 -182 186 -162 273 -223 362 -254 70 -24 71 -25 600 -30
453 -5 536 -8 571 -22 149 -58 243 -154 286 -291 16 -51 18 -96 18 -348 l0
-289 -39 0 -39 0 -22 65 c-61 182 -229 305 -434 318 -38 2 -40 4 -51 47 -18
71 -50 124 -116 195 -73 77 -169 129 -269 145 -41 6 -445 10 -1085 10 -1131 0
-1097 1 -1233 -66 -132 -64 -231 -178 -291 -332 l-26 -67 -3 -1492 c-1 -948
-6 -1493 -12 -1493 -5 0 -41 29 -78 65 -72 67 -116 137 -149 235 -17 52 -18
132 -21 1700 -1 992 1 1672 7 1713 11 82 55 180 107 237 68 75 177 132 274
143 19 2 316 4 660 5 504 1 638 -1 691 -12z m1191 -829 c63 -25 133 -88 163
-148 14 -27 25 -51 25 -54 0 -3 -418 -5 -930 -5 -635 0 -946 -3 -982 -11 -194
-40 -364 -201 -434 -409 -18 -52 -19 -122 -22 -1362 l-3 -1307 -52 -17 c-37
-13 -83 -18 -157 -19 l-105 0 0 1505 c0 1678 -5 1551 69 1663 61 92 170 161
280 177 28 4 512 7 1076 6 965 -1 1028 -2 1072 -19z m519 -405 c58 -28 113
-81 139 -132 11 -22 20 -41 20 -44 0 -3 -352 -6 -782 -8 -776 -3 -784 -4 -848
-25 -147 -50 -282 -164 -347 -294 -22 -43 -123 -385 -313 -1057 -154 -546
-289 -1017 -300 -1046 -11 -29 -36 -75 -55 -102 l-35 -49 2 1240 3 1240 32 67
c52 111 147 191 263 224 35 10 279 12 1110 11 l1065 -2 46 -23z m1045 -379
c118 -39 212 -131 255 -247 44 -120 45 -116 -195 -1116 -120 -498 -228 -928
-241 -957 -28 -62 -103 -145 -161 -179 -96 -57 -10 -54 -1647 -54 l-1509 0 56
61 c109 121 109 121 422 1226 157 554 294 1028 305 1052 41 94 130 175 232
212 50 17 107 18 1243 19 1084 0 1195 -1 1240 -17z"/>
</g>
</svg>
