<?xml version="1.0" standalone="no"?>
<!DOCTYPE svg PUBLIC "-//W3C//DTD SVG 20010904//EN"
 "http://www.w3.org/TR/2001/REC-SVG-20010904/DTD/svg10.dtd">
<svg version="1.0" xmlns="http://www.w3.org/2000/svg"
 width="512.000000pt" height="512.000000pt" viewBox="0 0 512.000000 512.000000"
 preserveAspectRatio="xMidYMid meet">

<g transform="translate(0.000000,512.000000) scale(0.100000,-0.100000)"
fill="#000000" stroke="none">
<path d="M690 4796 c-267 -56 -493 -237 -609 -488 -82 -177 -76 -33 -76 -1748
0 -1455 1 -1528 19 -1595 87 -328 351 -579 674 -641 62 -12 368 -14 1883 -14
l1810 0 24 25 25 24 0 236 0 235 319 0 320 0 20 26 c44 56 46 54 -319 419
l-340 340 0 1096 c0 1094 0 1096 -21 1123 -17 21 -29 26 -65 26 -44 0 -44 0
-37 28 5 15 8 56 7 92 -2 112 -56 195 -174 264 -127 74 -219 83 -325 31 -72
-35 -95 -64 -204 -253 l-93 -162 -666 0 -666 0 -175 174 c-97 96 -186 177
-198 180 -24 8 -61 -8 -80 -33 -8 -11 -12 -64 -13 -169 l0 -152 -197 2 -198 3
-5 401 c-4 300 -8 405 -17 416 -17 20 -137 75 -220 100 -88 26 -308 34 -403
14z m343 -165 c42 -11 90 -27 106 -36 l31 -16 0 -1300 0 -1301 -22 6 c-13 4
-50 14 -83 24 -95 27 -326 24 -428 -6 -157 -45 -300 -133 -411 -253 l-67 -72
3 1204 3 1204 28 80 c80 226 241 386 457 454 85 26 98 28 211 30 66 1 119 -5
172 -18z m2955 -489 c-3 -9 -1109 -1925 -1114 -1930 -5 -7 -39 8 -63 27 l-24
19 512 888 c282 489 524 906 537 927 14 21 39 47 57 57 31 19 102 28 95 12z
m168 -119 c9 -20 14 -51 11 -68 -4 -26 -1040 -1838 -1068 -1869 -12 -13 -85
30 -81 46 6 24 1107 1928 1115 1928 4 0 15 -17 23 -37z m-1229 -1203 c-17 -30
-54 -94 -82 -142 l-51 -87 -220 220 c-120 121 -231 227 -246 235 -39 20 -66
17 -93 -11 l-25 -24 0 -829 0 -829 26 -24 26 -24 786 -3 c433 -2 806 0 830 3
56 8 82 34 82 82 0 35 -16 53 -335 372 l-334 336 78 134 c42 74 82 136 87 138
5 2 320 -307 699 -687 l690 -690 -1478 0 -1477 0 0 130 0 130 67 0 c55 0 71 4
90 22 32 30 31 81 -2 113 -21 22 -33 25 -90 25 l-65 0 0 95 0 95 55 0 c60 0
109 19 119 45 12 32 6 75 -14 95 -16 16 -33 20 -90 20 l-70 0 0 100 0 100 64
0 c82 0 116 23 116 80 0 57 -34 80 -116 80 l-64 0 0 95 0 95 49 0 c92 0 131
26 131 89 0 52 -29 71 -110 71 l-70 0 0 100 0 100 64 0 c82 0 116 23 116 80 0
57 -34 80 -116 80 l-64 0 0 100 0 100 70 0 c57 0 74 4 90 20 20 20 26 63 14
95 -10 26 -59 45 -119 45 l-55 0 0 95 0 95 65 0 c57 0 69 3 90 25 32 31 33 80
3 112 -18 20 -31 23 -90 23 l-68 0 0 202 0 203 535 -535 534 -534 -32 -56z
m-1197 -529 l0 -1408 21 -27 20 -26 1255 0 1254 0 0 -180 0 -180 -1753 0
c-1719 0 -1755 0 -1833 20 -469 118 -681 655 -419 1060 46 71 128 156 197 203
195 133 471 154 686 52 86 -41 117 -43 149 -13 l23 21 0 944 0 943 200 0 200
0 0 -1409z m1698 1400 c-8 -21 -384 -670 -388 -671 -3 0 -158 153 -345 340
l-340 340 538 0 c306 0 537 -4 535 -9z m852 -953 l0 -963 -370 370 c-204 204
-369 375 -368 380 2 6 154 272 338 592 334 580 335 582 368 583 l32 0 0 -962z
m-1582 -312 c-6 -12 -32 -57 -57 -101 l-46 -80 -3 -245 c-4 -271 0 -322 29
-351 38 -38 70 -26 318 117 130 74 244 145 253 157 17 22 19 21 253 -213 129
-129 235 -238 235 -242 0 -5 -295 -8 -655 -8 l-655 0 0 662 0 663 169 -169
c153 -152 169 -172 159 -190z m163 -402 c54 -31 99 -57 99 -59 0 -4 -195 -115
-203 -115 -4 0 -7 52 -7 115 0 63 3 115 6 115 3 0 51 -25 105 -56z"/>
</g>
</svg>
