<?xml version="1.0" standalone="no"?>
<!DOCTYPE svg PUBLIC "-//W3C//DTD SVG 20010904//EN"
 "http://www.w3.org/TR/2001/REC-SVG-20010904/DTD/svg10.dtd">
<svg version="1.0" xmlns="http://www.w3.org/2000/svg"
 width="256.000000pt" height="256.000000pt" viewBox="0 0 256.000000 256.000000"
 preserveAspectRatio="xMidYMid meet">

<g transform="translate(0.000000,256.000000) scale(0.100000,-0.100000)"
fill="#000000" stroke="none">
<path d="M369 2302 c-60 -31 -111 -96 -129 -162 -7 -26 -10 -323 -8 -882 l3
-843 29 -53 c33 -59 76 -96 137 -117 58 -21 1703 -22 1760 -1 60 21 107 64
139 129 l30 60 0 841 c0 549 -4 854 -10 878 -17 59 -69 120 -129 151 l-55 27
-857 0 -857 0 -53 -28z m868 -339 c3 -9 -5 -78 -18 -155 l-25 -138 133 0 c129
0 133 1 138 23 2 12 14 76 26 142 11 66 25 126 31 133 16 19 167 17 174 -3 3
-8 -3 -70 -15 -139 -12 -68 -21 -131 -21 -140 0 -14 16 -16 109 -16 61 0 112
-3 114 -7 4 -8 -8 -110 -19 -160 -4 -22 -8 -23 -124 -23 -66 0 -120 -1 -120
-2 0 -2 -11 -66 -25 -142 -14 -77 -25 -146 -25 -153 0 -10 27 -13 115 -13 86
0 117 -3 121 -13 2 -7 -1 -51 -8 -98 l-13 -84 -127 -3 -127 -3 -5 -27 c-3 -15
-15 -81 -27 -147 -11 -66 -24 -124 -28 -128 -4 -4 -48 -7 -97 -5 -104 3 -97
-18 -60 178 l23 125 -130 3 c-71 1 -132 1 -134 -1 -2 -3 -15 -62 -28 -133 -14
-71 -27 -139 -30 -151 -5 -22 -10 -23 -95 -23 -49 0 -91 4 -94 9 -3 4 7 74 23
155 l28 146 -118 0 c-67 0 -120 4 -124 10 -9 15 15 174 28 182 7 4 65 8 129 8
114 0 118 1 123 23 13 52 45 243 45 264 0 23 -1 23 -121 23 l-122 0 8 81 c3
45 9 88 12 95 4 11 34 14 134 14 71 0 129 1 129 3 0 35 54 293 63 299 7 4 47
8 90 8 63 0 79 -3 84 -17z"/>
<path d="M1160 1478 c-1 -2 -13 -72 -29 -156 l-27 -153 135 3 135 3 23 125
c12 69 25 137 27 153 l6 27 -135 0 c-74 0 -135 -1 -135 -2z"/>
</g>
</svg>
