<?xml version="1.0" standalone="no"?>
<!DOCTYPE svg PUBLIC "-//W3C//DTD SVG 20010904//EN"
 "http://www.w3.org/TR/2001/REC-SVG-20010904/DTD/svg10.dtd">
<svg version="1.0" xmlns="http://www.w3.org/2000/svg"
 width="512.000000pt" height="512.000000pt" viewBox="0 0 512.000000 512.000000"
 preserveAspectRatio="xMidYMid meet">

<g transform="translate(0.000000,512.000000) scale(0.100000,-0.100000)"
fill="#000000" stroke="none">
<path d="M425 5095 l-25 -24 0 -2273 0 -2273 263 -262 262 -263 1873 0 1873 0
24 25 25 24 0 2273 0 2273 -263 262 -262 263 -1873 0 -1873 0 -24 -25z m3860
-295 l160 -160 -1725 0 -1725 0 -160 160 -160 160 1725 0 1725 0 160 -160z
m-3405 -2400 l0 -2125 -160 160 -160 160 0 2125 0 2125 160 -160 160 -160 0
-2125z m3680 1760 l0 -320 -40 0 -40 0 0 255 0 256 -25 24 -24 25 -1620 0
c-1166 0 -1627 -3 -1644 -11 -14 -6 -30 -22 -36 -36 -8 -17 -11 -582 -11
-2034 0 -2147 -2 -2055 45 -2073 9 -3 748 -6 1641 -6 l1625 0 24 25 25 24 0
256 0 255 40 0 40 0 0 -320 0 -320 -1760 0 -1760 0 0 2160 0 2160 1760 0 1760
0 0 -320z m-240 -120 l0 -200 -55 0 c-46 0 -60 -4 -80 -25 -25 -24 -25 -26
-25 -215 0 -189 0 -191 25 -215 20 -21 34 -25 80 -25 l55 0 0 -1040 0 -1040
-54 0 c-38 0 -61 -6 -77 -19 -24 -19 -24 -23 -27 -215 l-3 -196 25 -25 c21
-21 35 -25 81 -25 l55 0 0 -200 0 -200 -1520 0 -1520 0 0 1920 0 1920 1520 0
1520 0 0 -200z m240 -440 l0 -80 -120 0 -120 0 0 80 0 80 120 0 120 0 0 -80z
m0 -1280 l0 -1040 -40 0 -40 0 0 1040 0 1040 40 0 40 0 0 -1040z m0 -1280 l0
-80 -120 0 -120 0 0 80 0 80 120 0 120 0 0 -80z"/>
<path d="M2842 3667 c-27 -16 -831 -1455 -839 -1504 -4 -25 0 -37 20 -57 l26
-26 829 0 c824 0 829 0 856 21 18 14 26 30 26 50 0 46 -811 1502 -845 1517
-32 15 -44 15 -73 -1z m368 -823 c179 -322 327 -590 328 -595 2 -5 -257 -9
-658 -9 -364 0 -660 4 -658 8 10 26 654 1181 658 1181 3 1 151 -263 330 -585z"/>
<path d="M2842 2953 c-18 -7 -190 -265 -197 -296 -8 -29 16 -81 40 -91 9 -3
41 -6 71 -6 l54 0 -45 -67 c-27 -40 -45 -79 -45 -96 0 -55 69 -94 119 -68 28
15 201 284 201 311 0 14 -9 36 -19 49 -16 21 -30 26 -84 29 l-66 4 45 67 c26
39 44 77 44 94 0 53 -64 92 -118 70z"/>
<path d="M1490 2468 c-50 -17 -104 -76 -120 -131 -35 -126 46 -243 176 -254
49 -4 66 -1 104 19 134 72 147 254 24 341 -46 32 -128 43 -184 25z m100 -163
c26 -32 -13 -81 -47 -59 -35 22 -23 74 17 74 10 0 23 -7 30 -15z"/>
<path d="M2025 1735 c-16 -15 -25 -36 -25 -55 0 -19 9 -40 25 -55 l24 -25 831
0 831 0 24 25 c16 15 25 36 25 55 0 19 -9 40 -25 55 l-24 25 -831 0 -831 0
-24 -25z"/>
<path d="M2025 1495 c-16 -15 -25 -36 -25 -55 0 -19 9 -40 25 -55 l24 -25 831
0 831 0 24 25 c16 15 25 36 25 55 0 19 -9 40 -25 55 l-24 25 -831 0 -831 0
-24 -25z"/>
<path d="M2025 1255 c-16 -15 -25 -36 -25 -55 0 -19 9 -40 25 -55 l24 -25 831
0 831 0 24 25 c16 15 25 36 25 55 0 19 -9 40 -25 55 l-24 25 -831 0 -831 0
-24 -25z"/>
</g>
</svg>
