<?xml version="1.0" standalone="no"?>
<!DOCTYPE svg PUBLIC "-//W3C//DTD SVG 20010904//EN"
 "http://www.w3.org/TR/2001/REC-SVG-20010904/DTD/svg10.dtd">
<svg version="1.0" xmlns="http://www.w3.org/2000/svg"
 width="512.000000pt" height="512.000000pt" viewBox="0 0 512.000000 512.000000"
 preserveAspectRatio="xMidYMid meet">

<g transform="translate(0.000000,512.000000) scale(0.100000,-0.100000)"
fill="#000000" stroke="none">
<path d="M243 5106 c-88 -28 -176 -107 -216 -194 l-22 -47 0 -1495 0 -1495 28
-57 c40 -82 120 -152 204 -178 64 -20 89 -20 1175 -20 1031 0 1110 -1 1104
-17 -21 -54 -29 -154 -18 -216 12 -62 223 -610 278 -719 164 -329 474 -562
856 -644 116 -25 381 -26 495 -1 421 91 784 358 918 675 58 139 70 208 69 392
-1 143 -4 177 -26 260 -36 135 -412 1076 -447 1120 -120 150 -327 172 -458 47
l-32 -30 -36 31 c-59 52 -113 75 -190 80 -96 6 -172 -23 -237 -90 -47 -49 -48
-49 -78 -33 l-30 15 -2 1193 -3 1192 -23 46 c-36 74 -87 125 -160 161 l-67 33
-1520 2 c-1231 1 -1528 -1 -1562 -11z m3073 -175 c23 -10 52 -34 65 -52 l24
-34 3 -1012 2 -1013 -173 0 -174 0 -152 384 c-84 212 -165 403 -181 425 -33
45 -90 86 -147 106 -31 11 -37 18 -35 37 2 13 4 79 5 148 1 103 -3 139 -21
203 -39 136 -100 242 -197 341 -242 245 -616 296 -925 125 -94 -53 -221 -178
-278 -274 -139 -237 -139 -542 0 -780 60 -103 193 -230 293 -282 120 -62 202
-84 332 -90 139 -7 260 18 378 77 43 22 79 39 80 37 1 -1 43 -104 92 -229 l91
-228 -1114 0 -1114 0 0 994 c0 679 3 1004 11 1023 14 37 57 82 94 99 25 11
296 13 1515 13 1427 1 1487 0 1526 -18z m-1358 -434 c103 -30 180 -76 257
-154 105 -104 175 -274 175 -420 0 -75 -27 -186 -47 -198 -10 -5 -43 -35 -74
-65 -53 -53 -89 -122 -89 -171 0 -38 -150 -122 -259 -145 -138 -29 -289 -8
-414 58 -131 69 -253 226 -291 374 -20 78 -21 222 -1 298 53 202 234 382 431
430 94 23 219 20 312 -7z m595 -936 c15 -10 34 -27 41 -37 7 -10 141 -338 296
-729 156 -390 289 -718 297 -727 23 -26 67 -32 102 -13 36 18 35 14 35 127 1
87 1 88 36 123 47 47 91 54 154 26 44 -19 50 -26 86 -104 31 -67 44 -86 69
-97 65 -27 130 35 110 104 -37 130 66 232 184 182 47 -20 62 -42 107 -151 22
-54 47 -106 56 -116 35 -39 99 -31 130 16 15 22 15 33 5 78 -14 67 -1 117 40
151 38 32 68 40 115 31 79 -14 87 -30 294 -552 104 -265 200 -522 212 -570 32
-126 32 -326 0 -436 -55 -193 -170 -347 -352 -471 -414 -283 -917 -298 -1302
-38 -129 87 -265 240 -334 374 -50 97 -264 650 -270 697 -9 66 16 146 61 198
41 48 103 90 114 77 4 -5 74 -178 156 -384 81 -206 154 -383 162 -392 32 -36
98 -31 130 11 31 40 47 -4 -587 1581 -186 465 -342 862 -348 882 -15 54 0 107
42 146 30 27 43 32 83 32 30 0 59 -7 76 -19z m-86 -923 c11 -14 133 -318 133
-330 0 -5 -166 -8 -369 -8 l-369 0 -12 30 c-17 41 -76 99 -124 121 -50 22
-152 25 -200 5 -46 -19 -110 -79 -130 -121 l-17 -35 -153 0 c-146 0 -153 -1
-173 -22 -29 -32 -34 -53 -21 -88 17 -51 49 -60 207 -60 l140 0 15 -29 c43
-82 131 -135 226 -134 101 1 180 45 221 124 l20 39 406 -2 407 -3 50 -124 c46
-117 49 -125 31 -135 -10 -6 -40 -26 -66 -43 l-49 -33 -1162 0 c-1114 0 -1165
1 -1204 19 -23 10 -54 36 -70 57 l-29 37 -3 360 c-2 198 -1 366 2 374 8 19
2278 20 2293 1z m943 -58 c0 -63 -2 -70 -20 -70 -27 0 -68 -19 -121 -57 l-46
-32 -41 105 c-23 58 -42 109 -42 115 0 5 56 9 135 9 l135 0 0 -70z m-1733
-302 c30 -34 36 -63 19 -96 -28 -55 -105 -63 -142 -14 -21 27 -17 83 8 109 29
31 87 32 115 1z"/>
<path d="M1647 4256 c-98 -36 -107 -64 -107 -331 0 -245 5 -269 69 -310 48
-31 91 -39 138 -25 56 18 334 209 360 249 32 47 32 125 0 172 -13 21 -83 75
-182 141 -174 117 -209 130 -278 104z m190 -248 c68 -45 120 -84 116 -88 -30
-26 -235 -161 -239 -157 -9 8 -17 327 -8 327 4 0 64 -37 131 -82z"/>
<path d="M369 2361 c-28 -29 -29 -32 -29 -136 0 -137 18 -174 88 -175 22 0 41
8 57 25 24 23 25 30 25 142 -1 123 -5 139 -47 161 -35 19 -63 14 -94 -17z"/>
<path d="M713 2366 c-27 -24 -28 -28 -31 -138 -4 -112 -3 -115 23 -146 34 -41
84 -44 120 -7 24 23 25 30 25 139 0 63 -3 122 -6 131 -8 19 -55 45 -83 45 -11
0 -33 -11 -48 -24z"/>
</g>
</svg>
